<?xml version="1.0" encoding="UTF-8"?>
<svg xmlns="http://www.w3.org/2000/svg" xmlns:xlink="http://www.w3.org/1999/xlink" width="32px" height="32px" viewBox="0 0 32 32" version="1.1">
  <!-- Orange background circle -->
  <circle cx="16" cy="16" r="16" fill="#f97316"/>
  <!-- Design Draft emblem scaled to fit 32x32 (original paths scaled from ~80px to 32px, scale ≈ 0.4) -->
  <g transform="translate(0.4, 0.06) scale(0.395)">
    <!-- Outer arc left -->
    <path style="stroke:none;fill-rule:nonzero;fill:rgb(100%,100%,100%);fill-opacity:1;" d="M 42.339844 0.152344 C 27.757812 1.773438 16.804688 8.773438 10.480469 22.183594 C 5.871094 31.957031 5.828125 42.023438 9.828125 52.0625 C 12.03125 57.601562 15.460938 62.320312 19.972656 66.210938 C 24.472656 70.09375 29.605469 72.78125 35.378906 74.230469 C 41.15625 75.675781 46.933594 75.757812 52.746094 74.453125 C 58.519531 73.160156 63.6875 70.5625 68.511719 66.722656 C 67.355469 70.140625 57.5625 76.261719 50.476562 78.210938 C 43.371094 80.171875 36.269531 80.136719 29.164062 78.203125 C 9.136719 72.765625 -3.394531 52.421875 0.8125 31.828125 C 5.269531 10.003906 25.210938 -1.480469 42.339844 0.152344 Z"/>
    <!-- Inner D emblem -->
    <path style="stroke:none;fill-rule:nonzero;fill:rgb(100%,100%,100%);fill-opacity:1;" d="M 56.664062 41.449219 C 57.921875 41.574219 58.960938 41.628906 59.972656 41.796875 C 60.609375 41.90625 61.257812 42.246094 61.121094 43.019531 C 60.96875 43.867188 60.179688 43.398438 59.859375 43.289062 C 56.761719 42.300781 54.886719 43.714844 52.871094 45.996094 C 46.871094 52.78125 39.542969 57.554688 30.511719 59.316406 C 28.257812 59.757812 25.953125 59.648438 23.703125 59.390625 C 21.835938 59.175781 20.464844 58.03125 19.925781 56.136719 C 19.40625 54.3125 19.972656 52.757812 21.335938 51.488281 C 24.3125 48.71875 27.953125 47.136719 31.695312 45.753906 C 33.011719 45.257812 33.863281 44.496094 34.449219 43.136719 C 36.375 38.632812 38.492188 34.210938 40.4375 29.71875 C 41.011719 28.394531 41.632812 28 42.824219 28.945312 C 43.191406 29.230469 43.597656 29.464844 43.980469 29.726562 C 44.824219 30.3125 45.003906 30.949219 44.503906 31.945312 C 42.816406 35.316406 40.671875 38.445312 39.335938 41.988281 C 39.191406 42.375 39.03125 42.761719 38.84375 43.226562 C 41.300781 42.796875 43.695312 42.355469 46.109375 41.96875 C 47.488281 41.753906 48.878906 41.601562 50.269531 41.476562 C 52.054688 41.304688 53.605469 40.613281 54.71875 39.238281 C 56.628906 36.871094 57.921875 34.148438 58.289062 31.121094 C 58.65625 28.136719 57.335938 26.238281 54.441406 25.195312 C 50.546875 23.792969 46.609375 24 42.664062 24.871094 C 37.800781 25.941406 33.34375 27.894531 29.65625 31.335938 C 26.742188 34.058594 25.183594 37.367188 25.730469 41.5 C 23.082031 40.289062 21.667969 37.105469 22.023438 33.726562 C 22.382812 30.4375 23.933594 27.917969 26.464844 25.84375 C 33.496094 20.089844 41.453125 17.277344 50.566406 18.042969 C 52.207031 18.175781 53.820312 18.527344 55.363281 19.128906 C 60.074219 21 62.152344 24.953125 61.265625 30.121094 C 60.546875 34.175781 58.746094 37.753906 56.664062 41.449219 Z M 31.503906 47.300781 C 28.894531 48.125 26.332031 48.828125 24.097656 50.347656 C 23.019531 51.082031 22.160156 52.046875 21.59375 53.257812 C 20.734375 55.121094 21.308594 56.601562 23.183594 57.402344 C 25.988281 58.597656 28.804688 58.363281 31.613281 57.421875 C 38.457031 55.128906 43.640625 50.519531 48.304688 45.230469 C 49.03125 44.414062 49.867188 43.632812 50.25 42.453125 C 46.503906 42.8125 42.898438 43.378906 39.433594 44.613281 C 38.476562 44.953125 37.558594 45.3125 37.03125 46.390625 C 35.667969 49.160156 34.195312 51.875 32.769531 54.617188 C 32.5625 55.019531 32.421875 55.453125 31.847656 55.542969 C 30.492188 55.75 28.941406 55.929688 28.035156 54.984375 C 27.183594 54.09375 28.355469 53 28.832031 52.089844 C 29.378906 51.039062 30.117188 50.09375 30.742188 49.078125 C 31.046875 48.558594 31.480469 48.101562 31.503906 47.300781 Z"/>
    <!-- Outer arc right -->
    <path style="stroke:none;fill-rule:nonzero;fill:rgb(100%,100%,100%);fill-opacity:1;" d="M 22.859375 8.738281 C 27.71875 4.835938 33.226562 2.417969 39.378906 1.410156 C 49.265625 -0.195312 58.296875 1.96875 66.371094 7.820312 C 74.65625 13.835938 79.535156 22.023438 80.9375 32.191406 C 83.179688 48.511719 74.34375 64.125 58.851562 70.492188 C 58.621094 70.589844 58.242188 70.699219 57.992188 70.761719 C 57.894531 70.789062 57.050781 70.984375 56.960938 70.886719 C 61.660156 68.242188 66.59375 64.53125 69.796875 60.125 C 75.195312 52.691406 77.597656 44.449219 76.578125 35.253906 C 74.910156 20.226562 64.433594 8.214844 49.738281 4.78125 C 40.878906 2.714844 32.382812 3.910156 24.394531 8.378906 C 23.988281 8.601562 22.0625 9.636719 21.648438 9.851562 C 21.808594 9.636719 22.527344 9.035156 22.859375 8.738281 Z"/>
  </g>
</svg>
