<?xml version="1.0" encoding="UTF-8"?>
<svg xmlns="http://www.w3.org/2000/svg" xmlns:xlink="http://www.w3.org/1999/xlink" width="323px" height="80px" viewBox="0 0 322 80" version="1.1">
<g id="surface1">
<path style=" stroke:none;fill-rule:nonzero;fill:rgb(100%,100%,100%);fill-opacity:1;" d="M 42.339844 0.152344 C 27.757812 1.773438 16.804688 8.773438 10.480469 22.183594 C 5.871094 31.957031 5.828125 42.023438 9.828125 52.0625 C 12.03125 57.601562 15.460938 62.320312 19.972656 66.210938 C 24.472656 70.09375 29.605469 72.78125 35.378906 74.230469 C 41.15625 75.675781 46.933594 75.757812 52.746094 74.453125 C 58.519531 73.160156 63.6875 70.5625 68.511719 66.722656 C 67.355469 70.140625 57.5625 76.261719 50.476562 78.210938 C 43.371094 80.171875 36.269531 80.136719 29.164062 78.203125 C 9.136719 72.765625 -3.394531 52.421875 0.8125 31.828125 C 5.269531 10.003906 25.210938 -1.480469 42.339844 0.152344 Z M 42.339844 0.152344 "/>
<path style=" stroke:none;fill-rule:nonzero;fill:rgb(100%,100%,100%);fill-opacity:1;" d="M 56.664062 41.449219 C 57.921875 41.574219 58.960938 41.628906 59.972656 41.796875 C 60.609375 41.90625 61.257812 42.246094 61.121094 43.019531 C 60.96875 43.867188 60.179688 43.398438 59.859375 43.289062 C 56.761719 42.300781 54.886719 43.714844 52.871094 45.996094 C 46.871094 52.78125 39.542969 57.554688 30.511719 59.316406 C 28.257812 59.757812 25.953125 59.648438 23.703125 59.390625 C 21.835938 59.175781 20.464844 58.03125 19.925781 56.136719 C 19.40625 54.3125 19.972656 52.757812 21.335938 51.488281 C 24.3125 48.71875 27.953125 47.136719 31.695312 45.753906 C 33.011719 45.257812 33.863281 44.496094 34.449219 43.136719 C 36.375 38.632812 38.492188 34.210938 40.4375 29.71875 C 41.011719 28.394531 41.632812 28 42.824219 28.945312 C 43.191406 29.230469 43.597656 29.464844 43.980469 29.726562 C 44.824219 30.3125 45.003906 30.949219 44.503906 31.945312 C 42.816406 35.316406 40.671875 38.445312 39.335938 41.988281 C 39.191406 42.375 39.03125 42.761719 38.84375 43.226562 C 41.300781 42.796875 43.695312 42.355469 46.109375 41.96875 C 47.488281 41.753906 48.878906 41.601562 50.269531 41.476562 C 52.054688 41.304688 53.605469 40.613281 54.71875 39.238281 C 56.628906 36.871094 57.921875 34.148438 58.289062 31.121094 C 58.65625 28.136719 57.335938 26.238281 54.441406 25.195312 C 50.546875 23.792969 46.609375 24 42.664062 24.871094 C 37.800781 25.941406 33.34375 27.894531 29.65625 31.335938 C 26.742188 34.058594 25.183594 37.367188 25.730469 41.5 C 23.082031 40.289062 21.667969 37.105469 22.023438 33.726562 C 22.382812 30.4375 23.933594 27.917969 26.464844 25.84375 C 33.496094 20.089844 41.453125 17.277344 50.566406 18.042969 C 52.207031 18.175781 53.820312 18.527344 55.363281 19.128906 C 60.074219 21 62.152344 24.953125 61.265625 30.121094 C 60.546875 34.175781 58.746094 37.753906 56.664062 41.449219 Z M 31.503906 47.300781 C 28.894531 48.125 26.332031 48.828125 24.097656 50.347656 C 23.019531 51.082031 22.160156 52.046875 21.59375 53.257812 C 20.734375 55.121094 21.308594 56.601562 23.183594 57.402344 C 25.988281 58.597656 28.804688 58.363281 31.613281 57.421875 C 38.457031 55.128906 43.640625 50.519531 48.304688 45.230469 C 49.03125 44.414062 49.867188 43.632812 50.25 42.453125 C 46.503906 42.8125 42.898438 43.378906 39.433594 44.613281 C 38.476562 44.953125 37.558594 45.3125 37.03125 46.390625 C 35.667969 49.160156 34.195312 51.875 32.769531 54.617188 C 32.5625 55.019531 32.421875 55.453125 31.847656 55.542969 C 30.492188 55.75 28.941406 55.929688 28.035156 54.984375 C 27.183594 54.09375 28.355469 53 28.832031 52.089844 C 29.378906 51.039062 30.117188 50.09375 30.742188 49.078125 C 31.046875 48.558594 31.480469 48.101562 31.503906 47.300781 Z M 31.503906 47.300781 "/>
<path style=" stroke:none;fill-rule:nonzero;fill:rgb(100%,100%,100%);fill-opacity:1;" d="M 22.859375 8.738281 C 27.71875 4.835938 33.226562 2.417969 39.378906 1.410156 C 49.265625 -0.195312 58.296875 1.96875 66.371094 7.820312 C 74.65625 13.835938 79.535156 22.023438 80.9375 32.191406 C 83.179688 48.511719 74.34375 64.125 58.851562 70.492188 C 58.621094 70.589844 58.242188 70.699219 57.992188 70.761719 C 57.894531 70.789062 57.050781 70.984375 56.960938 70.886719 C 61.660156 68.242188 66.59375 64.53125 69.796875 60.125 C 75.195312 52.691406 77.597656 44.449219 76.578125 35.253906 C 74.910156 20.226562 64.433594 8.214844 49.738281 4.78125 C 40.878906 2.714844 32.382812 3.910156 24.394531 8.378906 C 23.988281 8.601562 22.0625 9.636719 21.648438 9.851562 C 21.808594 9.636719 22.527344 9.035156 22.859375 8.738281 Z M 22.859375 8.738281 "/>
<path style=" stroke:none;fill-rule:nonzero;fill:rgb(100%,100%,100%);fill-opacity:1;" d="M 99.597656 52.457031 C 101.136719 48.214844 104.671875 46.128906 108.527344 44.664062 C 110.851562 43.785156 112.152344 42.425781 113.039062 40.179688 C 114.539062 36.429688 116.304688 32.789062 117.972656 29.113281 C 118.53125 27.890625 118.871094 27.710938 119.75 28.070312 C 120.988281 28.585938 121.453125 29.464844 120.96875 30.554688 C 119.390625 34.148438 117.777344 37.734375 116.179688 41.320312 C 116.117188 41.472656 116.054688 41.628906 115.9375 41.921875 C 117.066406 41.671875 118.097656 41.421875 119.140625 41.203125 C 122.449219 40.511719 125.785156 40.046875 129.175781 40 C 129.804688 39.992188 130.191406 39.773438 130.53125 39.253906 C 132.289062 36.574219 133.824219 33.816406 134.34375 30.597656 C 134.621094 28.898438 134.101562 27.523438 132.621094 26.554688 C 130.890625 25.410156 128.945312 24.890625 126.933594 24.800781 C 119.972656 24.503906 113.804688 26.597656 108.554688 31.226562 C 106.878906 32.699219 105.605469 34.5 104.941406 36.675781 C 104.601562 37.796875 104.601562 38.929688 104.871094 40.070312 C 104.949219 40.429688 104.960938 40.753906 104.589844 40.933594 C 104.171875 41.140625 103.972656 40.78125 103.8125 40.519531 C 102.769531 38.847656 102.699219 37.042969 103.191406 35.191406 C 104.027344 32.082031 106.027344 29.769531 108.421875 27.792969 C 112.574219 24.367188 117.347656 22.390625 122.691406 21.753906 C 122.863281 21.734375 123.09375 21.832031 123.195312 21.574219 C 124.199219 21.574219 125.203125 21.574219 126.207031 21.574219 C 127.058594 21.914062 127.976562 21.851562 128.855469 22.078125 C 132.496094 23.019531 135.230469 24.996094 136.34375 28.738281 C 137.023438 31.039062 136.628906 33.320312 135.851562 35.550781 C 135.3125 37.105469 134.53125 38.542969 133.707031 39.964844 C 135.023438 40.574219 136.828125 39.667969 137.722656 41.4375 C 138.171875 40.601562 138.621094 39.757812 139.285156 39.054688 C 140.144531 38.148438 141.113281 37.445312 142.351562 37.125 C 143.1875 36.90625 143.957031 37.035156 144.683594 37.464844 C 146.058594 38.273438 146.289062 39.390625 145.320312 40.664062 C 144.148438 42.21875 142.65625 43.363281 140.773438 43.910156 C 140.28125 44.054688 140.066406 44.242188 140.09375 44.808594 C 140.183594 46.742188 141.1875 47.453125 142.972656 46.707031 C 145.949219 45.464844 148.21875 43.371094 149.996094 40.710938 C 150.398438 40.109375 150.800781 39.902344 151.449219 40.339844 C 151.464844 40.242188 151.519531 40.160156 151.492188 40.097656 C 150.890625 38.632812 151.015625 37.699219 152.09375 36.691406 C 153.207031 35.648438 154.480469 35.046875 156.050781 35.585938 C 156.308594 35.675781 156.550781 35.839844 156.765625 36.007812 C 157.144531 36.304688 157.539062 36.65625 157.347656 37.195312 C 157.160156 37.734375 156.648438 37.5 156.253906 37.511719 C 155.589844 37.511719 154.980469 37.699219 154.453125 38.085938 C 153.582031 38.722656 153.476562 39.730469 154.175781 40.546875 C 154.371094 40.78125 154.648438 40.972656 154.785156 41.242188 C 155.277344 42.238281 155.941406 42.230469 156.855469 41.808594 C 158.121094 41.230469 159.429688 40.765625 160.738281 40.296875 C 161.71875 39.945312 162.246094 40.226562 162.523438 41.152344 C 162.308594 41.664062 161.84375 41.859375 161.375 42.039062 C 159.84375 42.625 158.316406 43.21875 156.777344 43.785156 C 156.355469 43.9375 156.203125 44.152344 156.15625 44.621094 C 155.921875 47.136719 152.890625 49.140625 150.480469 48.40625 C 149.769531 48.1875 149.097656 47.855469 148.925781 47.039062 C 148.765625 46.265625 149.296875 45.78125 149.804688 45.347656 C 150.757812 44.558594 151.832031 43.964844 152.953125 43.460938 C 153.691406 43.136719 153.609375 42.734375 153.257812 42.246094 C 152.9375 41.808594 152.542969 41.421875 152.074219 40.882812 C 152.074219 41.707031 151.699219 42.191406 151.339844 42.679688 C 149.5625 45.078125 147.292969 46.914062 144.621094 48.214844 C 141.878906 49.546875 138.378906 48.171875 137.535156 45.511719 C 137.238281 44.558594 137.257812 43.59375 137.4375 42.632812 C 135.957031 42.4375 134.53125 42.183594 133.085938 42.09375 C 132.539062 42.058594 132.191406 42.183594 131.824219 42.644531 C 126.613281 49.214844 120.089844 53.960938 112.082031 56.546875 C 109.273438 57.457031 106.375 57.832031 103.425781 57.203125 C 101.542969 56.800781 100.269531 55.75 99.75 53.859375 C 99.722656 53.753906 99.695312 53.644531 99.558594 53.628906 C 99.597656 53.242188 99.597656 52.84375 99.597656 52.457031 Z M 110.296875 46.246094 C 106.988281 47.605469 104.105469 49.140625 102.195312 52.054688 C 101.910156 52.496094 101.695312 52.988281 101.605469 53.519531 C 101.390625 54.8125 101.730469 55.289062 103.011719 55.453125 C 105.398438 55.757812 107.738281 55.570312 110.046875 54.886719 C 115.589844 53.242188 120.269531 50.148438 124.476562 46.257812 C 125.820312 45.015625 127.113281 43.722656 128.28125 42.21875 C 128.117188 42.191406 128.046875 42.15625 127.976562 42.167969 C 123.605469 42.355469 119.355469 43.164062 115.167969 44.40625 C 114.761719 44.519531 114.601562 44.800781 114.449219 45.140625 C 113.355469 47.488281 112.261719 49.832031 111.15625 52.179688 C 110.960938 52.609375 110.761719 53.042969 110.519531 53.445312 C 110.0625 54.210938 109.175781 54.347656 108.234375 53.878906 C 107.425781 53.472656 107.488281 52.871094 107.785156 52.1875 C 108.0625 51.550781 108.324219 50.902344 108.601562 50.265625 C 109.128906 48.988281 109.667969 47.722656 110.296875 46.246094 Z M 140.613281 42.4375 C 142.15625 41.492188 143.5 40.546875 144.261719 38.914062 C 142.765625 39.054688 141.140625 40.601562 140.613281 42.4375 Z M 150.9375 46.886719 C 152.101562 46.597656 152.597656 46.238281 152.820312 45.5 C 152.128906 45.886719 151.410156 46.101562 150.9375 46.886719 Z M 150.9375 46.886719 "/>
<path style=" stroke:none;fill-rule:nonzero;fill:rgb(100%,100%,100%);fill-opacity:1;" d="M 239.859375 21.574219 C 240.710938 21.914062 241.625 21.851562 242.503906 22.078125 C 246.144531 23.019531 248.882812 24.996094 249.992188 28.738281 C 250.675781 31.039062 250.28125 33.320312 249.5 35.550781 C 248.953125 37.105469 248.191406 38.554688 247.3125 40.035156 C 248.628906 40.316406 249.929688 40.144531 251.097656 40.71875 L 251.089844 40.699219 C 250.945312 40.917969 251.097656 40.988281 251.257812 41.0625 L 251.242188 41.050781 C 251.257812 41.1875 251.277344 41.332031 251.292969 41.464844 C 251.464844 42.410156 251.1875 42.734375 250.226562 42.554688 C 249.097656 42.335938 247.957031 42.257812 246.828125 42.128906 C 246.21875 42.058594 245.832031 42.210938 245.417969 42.722656 C 240.21875 49.265625 233.714844 53.996094 225.730469 56.566406 C 222.835938 57.5 219.855469 57.886719 216.824219 57.175781 C 213.640625 56.429688 212.339844 53.195312 214.144531 50.464844 C 215.453125 48.476562 217.308594 47.101562 219.34375 45.949219 C 220.878906 45.085938 222.484375 44.386719 224.136719 43.792969 C 224.871094 43.523438 225.320312 43.109375 225.632812 42.382812 C 227.542969 38.050781 229.5 33.734375 231.445312 29.421875 C 231.480469 29.347656 231.515625 29.265625 231.542969 29.195312 C 232.144531 27.917969 232.46875 27.722656 233.375 28.097656 C 234.648438 28.636719 235.058594 29.484375 234.539062 30.660156 C 232.988281 34.175781 231.417969 37.691406 229.859375 41.195312 C 229.769531 41.394531 229.6875 41.601562 229.570312 41.886719 C 230.46875 41.859375 231.238281 41.554688 232.027344 41.375 C 235.582031 40.601562 239.160156 40.070312 242.800781 40.019531 C 243.429688 40.007812 243.8125 39.785156 244.15625 39.261719 C 245.894531 36.609375 247.410156 33.871094 247.949219 30.6875 C 248.253906 28.871094 247.679688 27.453125 246.09375 26.464844 C 244.386719 25.402344 242.496094 24.890625 240.539062 24.808594 C 233.617188 24.511719 227.472656 26.605469 222.226562 31.183594 C 221.023438 32.234375 220.035156 33.492188 219.28125 34.914062 C 218.414062 36.546875 218.035156 38.257812 218.492188 40.082031 C 218.582031 40.441406 218.582031 40.765625 218.214844 40.945312 C 217.792969 41.152344 217.597656 40.789062 217.433594 40.53125 C 216.394531 38.859375 216.324219 37.050781 216.816406 35.210938 C 217.652344 32.097656 219.652344 29.796875 222.046875 27.8125 C 226.1875 24.386719 230.96875 22.410156 236.316406 21.769531 C 236.484375 21.753906 236.71875 21.851562 236.816406 21.589844 C 237.839844 21.574219 238.855469 21.574219 239.859375 21.574219 Z M 241.984375 42.148438 C 238.089844 42.28125 234.496094 42.984375 230.898438 43.765625 C 229.015625 44.179688 227.714844 44.980469 227.222656 46.914062 C 227.132812 47.253906 226.925781 47.570312 226.773438 47.902344 C 225.921875 49.71875 225.085938 51.542969 224.199219 53.339844 C 223.777344 54.191406 222.863281 54.382812 221.882812 53.90625 C 221.140625 53.546875 221.015625 53.140625 221.410156 52.160156 C 222.019531 50.667969 222.671875 49.1875 223.292969 47.703125 C 223.460938 47.289062 223.75 46.894531 223.777344 46.328125 C 220.886719 47.488281 218.296875 48.882812 216.359375 51.28125 C 215.792969 51.980469 215.328125 52.738281 215.203125 53.652344 C 215.039062 54.847656 215.328125 55.28125 216.492188 55.433594 C 218.125 55.648438 219.765625 55.675781 221.410156 55.390625 C 224.976562 54.769531 228.207031 53.3125 231.273438 51.453125 C 235.320312 48.996094 238.800781 45.90625 241.984375 42.148438 Z M 241.984375 42.148438 "/>
<path style=" stroke:none;fill-rule:nonzero;fill:rgb(100%,100%,100%);fill-opacity:1;" d="M 169.636719 62.859375 C 169.609375 62.8125 169.59375 62.734375 169.558594 62.722656 C 167.46875 62.238281 166.917969 60.746094 166.929688 58.824219 C 166.945312 54.464844 169.097656 51.191406 172.175781 48.386719 C 173.316406 47.34375 174.660156 46.597656 175.960938 45.78125 C 176.183594 45.636719 176.417969 45.492188 176.714844 45.292969 C 174.105469 45.203125 173.429688 44.636719 172.820312 41.949219 C 172.640625 42.265625 172.488281 42.507812 172.355469 42.75 C 171.378906 44.566406 170.203125 46.21875 168.507812 47.433594 C 167.484375 48.160156 166.371094 48.675781 165.070312 48.332031 C 163.429688 47.910156 162.390625 46.535156 162.273438 44.683594 C 162.203125 43.523438 162.445312 42.410156 162.730469 41.292969 C 163.144531 40.089844 163.65625 38.929688 164.328125 37.84375 C 164.714844 37.222656 165.214844 36.890625 165.960938 37.015625 L 165.949219 37.007812 C 167.207031 38.230469 167.226562 38.347656 166.410156 39.992188 C 165.554688 41.699219 164.894531 43.480469 164.867188 45.410156 C 164.839844 47.046875 165.324219 47.335938 166.722656 46.472656 C 168.765625 45.214844 170.066406 43.308594 171.109375 41.203125 C 171.753906 39.902344 172.085938 39.847656 173.089844 40.945312 C 173.71875 39.191406 174.820312 37.90625 176.667969 37.429688 C 177.988281 37.097656 179.117188 37.84375 179.296875 39.171875 C 179.988281 38.300781 180.660156 37.492188 181.296875 36.648438 C 181.648438 36.179688 181.996094 36.117188 182.507812 36.414062 C 183.710938 37.097656 183.980469 37.609375 183.765625 39.003906 C 183.613281 39.992188 183.46875 40.980469 183.296875 42.128906 C 184.6875 41.519531 185.945312 40.960938 187.199219 40.40625 C 187.65625 40.199219 188.132812 40.0625 188.535156 40.414062 C 188.992188 40.816406 189.164062 40.683594 189.40625 40.207031 C 189.933594 39.15625 190.582031 38.175781 191.289062 37.242188 C 191.738281 36.65625 192.214844 36.503906 192.859375 36.953125 C 193.65625 37.511719 193.847656 38.023438 193.425781 38.777344 C 192.734375 40.019531 192.023438 41.25 191.335938 42.5 C 191.207031 42.722656 191.011719 42.949219 191.066406 43.300781 C 191.449219 43.289062 191.558594 42.957031 191.730469 42.75 C 192.941406 41.285156 194.132812 39.8125 195.613281 38.589844 C 196.242188 38.066406 196.894531 37.601562 197.683594 37.347656 C 199.15625 36.898438 200.347656 37.96875 200.035156 39.46875 C 199.800781 40.59375 199.273438 41.617188 198.851562 42.679688 C 198.4375 43.703125 197.9375 44.699219 197.773438 45.914062 C 198.472656 45.671875 198.996094 45.277344 199.53125 44.917969 C 201.183594 43.8125 202.707031 42.554688 204.207031 41.25 C 204.5625 40.933594 204.90625 40.601562 205.300781 40.351562 C 205.757812 40.054688 206.277344 40.035156 206.671875 40.476562 C 207.046875 40.898438 206.921875 41.355469 206.609375 41.769531 C 206.511719 41.90625 206.402344 42.039062 206.269531 42.140625 C 204.179688 43.8125 202.089844 45.492188 199.792969 46.894531 C 199.441406 47.109375 199.046875 47.289062 198.652344 47.398438 C 196.546875 48.007812 195.03125 46.652344 195.34375 44.46875 C 195.550781 43.054688 196.3125 41.871094 196.90625 40.609375 C 196.914062 40.539062 196.949219 40.421875 196.921875 40.414062 C 196.832031 40.359375 196.789062 40.429688 196.769531 40.511719 C 194.976562 41.960938 193.710938 43.875 192.230469 45.601562 C 191.746094 46.167969 191.28125 46.757812 190.699219 47.246094 C 189.953125 47.863281 189.144531 47.953125 188.292969 47.542969 C 187.433594 47.117188 187.164062 46.363281 187.246094 45.457031 C 187.335938 44.441406 187.800781 43.542969 188.140625 42.605469 C 188.160156 42.542969 188.175781 42.472656 188.195312 42.410156 C 188.125 42.417969 188.050781 42.417969 187.988281 42.425781 C 186.402344 43.101562 184.824219 43.800781 183.226562 44.449219 C 182.722656 44.65625 182.527344 45.007812 182.363281 45.472656 C 180.976562 49.457031 179.332031 53.320312 177.171875 56.953125 C 176.070312 58.8125 174.785156 60.519531 173.011719 61.816406 C 172.335938 62.308594 171.574219 62.570312 170.8125 62.859375 C 170.425781 62.859375 170.03125 62.859375 169.636719 62.859375 Z M 178.617188 46.921875 C 177.269531 47.515625 176.03125 48.261719 174.867188 49.097656 C 172.589844 50.722656 170.902344 52.828125 169.90625 55.460938 C 169.296875 57.070312 169.144531 58.707031 169.539062 60.386719 C 169.683594 60.988281 169.90625 61.214844 170.480469 60.738281 C 171.296875 60.054688 172.113281 59.371094 172.730469 58.5 C 175.242188 54.949219 177.054688 51.019531 178.617188 46.921875 Z M 175.558594 42.992188 C 177.011719 42.03125 177.96875 40.691406 179.109375 39.40625 C 177.449219 39.300781 175.746094 41.050781 175.558594 42.992188 Z M 176.984375 44.890625 C 179.011719 44.71875 180.5625 43.191406 180.445312 41.5 C 179.304688 42.660156 178.425781 43.992188 176.984375 44.890625 Z M 190.929688 43.558594 C 190.984375 43.515625 191.046875 43.46875 191.109375 43.425781 C 191.074219 43.390625 191.03125 43.316406 191.003906 43.324219 C 190.929688 43.351562 190.859375 43.398438 190.796875 43.441406 C 190.832031 43.480469 190.875 43.515625 190.929688 43.558594 Z M 190.929688 43.558594 "/>
<path style=" stroke:none;fill-rule:nonzero;fill:rgb(100%,100%,100%);fill-opacity:1;" d="M 251.089844 40.71875 C 251.089844 40.648438 251.125 40.566406 251.089844 40.511719 C 249.941406 38.667969 250.386719 36.800781 252.253906 35.675781 C 253.140625 35.136719 253.90625 35.210938 254.710938 35.882812 C 255.574219 36.609375 255.84375 37.472656 255.464844 38.410156 C 255.285156 38.839844 255.035156 39.246094 254.792969 39.683594 C 255.339844 39.765625 255.769531 39.480469 256.21875 39.300781 C 256.792969 39.066406 257.332031 38.867188 257.804688 39.441406 C 258.289062 40.027344 258.199219 40.558594 257.761719 41.160156 C 256.746094 42.527344 255.886719 44 255.0625 45.484375 C 254.53125 46.445312 254.148438 47.453125 254.039062 48.558594 C 254.011719 48.890625 253.921875 49.367188 254.15625 49.5 C 254.480469 49.691406 254.820312 49.332031 255.089844 49.113281 C 255.957031 48.414062 256.765625 47.640625 257.519531 46.8125 C 259.257812 44.917969 260.8125 42.867188 262.378906 40.835938 C 263.070312 39.9375 263.421875 39.910156 264.238281 40.683594 C 266.820312 37.84375 269.402344 37.546875 270.453125 40.144531 C 270.757812 39.785156 271.019531 39.46875 271.277344 39.164062 C 271.734375 38.625 272.183594 38.742188 272.640625 39.164062 C 273.351562 39.828125 273.304688 40.664062 273.109375 41.5 C 272.894531 42.398438 272.742188 43.308594 272.714844 44.234375 C 272.695312 44.898438 272.910156 45.175781 273.671875 44.972656 C 275.234375 44.546875 276.480469 43.640625 277.691406 42.644531 C 278.417969 42.039062 279.109375 41.375 279.789062 40.71875 C 280.660156 39.902344 280.9375 39.917969 281.59375 40.917969 C 281.65625 41.007812 281.726562 41.085938 281.816406 41.214844 C 283.304688 37.527344 284.832031 33.921875 286.902344 30.578125 C 287.863281 29.035156 288.902344 27.550781 290.132812 26.203125 C 291.171875 25.0625 291.726562 24.855469 292.542969 25.257812 C 293.78125 25.871094 294.402344 27.066406 294.175781 28.332031 C 293.953125 29.609375 293.378906 30.757812 292.769531 32.007812 C 295.46875 31.398438 298.132812 31.183594 300.796875 31.019531 C 301.273438 30.992188 301.308594 30.6875 301.425781 30.382812 C 302.292969 27.972656 303.039062 25.519531 304.035156 23.15625 C 304.1875 22.785156 304.394531 22.410156 304.859375 22.453125 C 305.316406 22.488281 305.71875 22.722656 305.945312 23.144531 C 306.125 23.488281 306.042969 23.855469 305.945312 24.207031 C 305.441406 26.058594 304.921875 27.910156 304.429688 29.769531 C 304.125 30.929688 303.847656 30.902344 305.234375 30.859375 C 310.078125 30.722656 314.878906 31.199219 319.675781 31.792969 C 320.375 31.882812 320.878906 32.214844 321.164062 32.84375 C 321.558594 33.71875 321.246094 34.238281 320.304688 34.175781 C 318.546875 34.058594 316.796875 33.898438 315.046875 33.734375 C 311.289062 33.382812 307.515625 33.457031 303.746094 33.492188 C 303.199219 33.5 303.210938 33.871094 303.101562 34.191406 C 301.453125 39.425781 299.820312 44.664062 298.140625 49.886719 C 297.289062 52.539062 296.464844 55.199219 295.488281 57.808594 C 295.21875 58.527344 294.742188 58.894531 294.007812 58.949219 C 293.082031 59.019531 292.617188 58.515625 292.832031 57.628906 C 293.039062 56.789062 293.289062 55.964844 293.550781 55.136719 C 294.75 51.28125 295.933594 47.414062 297.183594 43.578125 C 297.578125 42.347656 297.308594 41.402344 296.390625 40.566406 C 296.328125 40.539062 296.222656 40.476562 296.203125 40.496094 C 296.097656 40.601562 296.175781 40.675781 296.277344 40.738281 C 296.402344 41.320312 296.023438 41.671875 295.664062 42.03125 C 292.8125 44.828125 289.84375 47.503906 286.578125 49.824219 C 286.195312 50.09375 286.058594 50.382812 286.042969 50.847656 C 285.941406 54.15625 284.875 57.1875 283.253906 60.035156 C 282.839844 60.765625 282.335938 61.445312 281.59375 61.886719 C 280.398438 62.589844 279.089844 62.15625 278.542969 60.890625 C 278.175781 60.027344 278.078125 59.109375 278.058594 58.183594 C 277.976562 53.878906 279.027344 49.78125 280.300781 45.71875 C 280.660156 44.558594 281.046875 43.414062 281.429688 42.21875 C 280.984375 42.246094 280.832031 42.554688 280.617188 42.75 C 279.089844 44.160156 277.449219 45.394531 275.539062 46.246094 C 272.972656 47.40625 270.855469 46.167969 270.625 43.363281 C 270.335938 43.261719 270.238281 43.53125 270.09375 43.660156 C 269.375 44.289062 268.648438 44.90625 267.808594 45.339844 C 265.96875 46.265625 263.914062 45.140625 263.636719 43.082031 C 263.617188 42.921875 263.617188 42.769531 263.601562 42.453125 C 262.398438 43.9375 261.285156 45.3125 260.15625 46.679688 C 259.105469 47.945312 258.074219 49.242188 256.722656 50.21875 C 255.921875 50.796875 255.097656 51.34375 254.039062 51.183594 C 252.246094 50.914062 251.242188 49.292969 251.609375 47.261719 C 251.816406 46.128906 252.210938 45.0625 252.875 44.097656 C 253.359375 43.390625 253.832031 42.679688 254.371094 41.878906 C 253.257812 41.886719 252.324219 41.628906 251.527344 40.953125 C 251.402344 40.84375 251.285156 40.828125 251.214844 41.015625 L 251.230469 41.023438 C 251.492188 40.746094 251.304688 40.691406 251.0625 40.664062 C 251.078125 40.699219 251.089844 40.71875 251.089844 40.71875 Z M 296.078125 40.449219 C 295.980469 40.019531 295.753906 39.929688 295.59375 39.792969 C 294.050781 38.527344 292.339844 37.582031 290.453125 36.925781 C 289.953125 36.746094 289.683594 36.816406 289.351562 37.222656 C 288.015625 38.832031 286.757812 40.53125 285.242188 41.949219 C 283.917969 43.199219 283.621094 44.800781 283 46.425781 C 284.015625 46.347656 284.902344 46.488281 285.496094 47.253906 C 285.800781 47.648438 285.96875 47.558594 286.273438 47.324219 C 288.867188 45.347656 291.414062 43.308594 293.753906 41.023438 C 294.390625 40.386719 295.046875 39.875 296.078125 40.449219 Z M 290.976562 35.34375 C 293.855469 36.539062 296.148438 38.183594 298.214844 40.351562 C 298.941406 38.078125 299.640625 35.910156 300.355469 33.679688 C 297.164062 33.921875 294.113281 34.273438 290.976562 35.34375 Z M 280.8125 59.335938 C 282.09375 56.988281 282.949219 54.515625 283.359375 51.710938 C 282.722656 52.027344 282.265625 52.277344 281.789062 52.476562 C 281.429688 52.628906 281.199219 52.84375 281.125 53.25 C 280.777344 55.253906 280.589844 57.277344 280.8125 59.335938 Z M 266.113281 43.523438 C 267.746094 42.894531 268.8125 41.761719 269.925781 40.59375 C 268.191406 40.289062 266.675781 41.429688 266.113281 43.523438 Z M 291.601562 28.84375 C 290.429688 30.183594 289.496094 31.683594 288.757812 33.320312 C 290.222656 32.160156 290.839844 30.464844 291.601562 28.84375 Z M 254.058594 37.320312 C 253.140625 37.878906 252.53125 38.625 252.398438 39.929688 C 253.304688 39.117188 253.804688 38.308594 254.058594 37.320312 Z M 254.058594 37.320312 "/>
<path style=" stroke:none;fill-rule:nonzero;fill:rgb(100%,100%,100%);fill-opacity:1;" d="M 165.960938 37.035156 C 165.046875 35.683594 166.09375 34.769531 166.722656 33.789062 C 167.089844 33.222656 167.65625 33.375 168.121094 33.707031 C 168.578125 34.03125 169.074219 34.371094 168.695312 35.066406 C 168.632812 35.191406 168.550781 35.308594 168.507812 35.433594 C 168.050781 36.601562 167.53125 37.652344 165.949219 37.015625 C 165.949219 37.015625 165.960938 37.035156 165.960938 37.035156 Z M 165.960938 37.035156 "/>
</g>
</svg>
